<svg width="24" height="24" viewBox="0 0 24 24" fill="none" xmlns="http://www.w3.org/2000/svg">
<path d="M22.7744 0.0371094L13.4468 7.5095L15.1829 3.09232L22.7744 0.0371094Z" fill="#E17726" stroke="#E17726" stroke-width="0.25" stroke-linecap="round" stroke-linejoin="round"/>
<path d="M1.22552 0.0371094L10.4851 7.58312L8.817 3.12913L1.22552 0.0371094ZM19.4042 17.3745L16.9191 21.4972L22.2638 23.0801L23.7957 17.485C23.7617 17.485 19.4042 17.3745 19.4042 17.3745ZM0.238281 17.485L1.7702 23.0801L7.08083 21.4972L4.59573 17.3745L0.238281 17.485Z" fill="#E27625" stroke="#E27625" stroke-width="0.25" stroke-linecap="round" stroke-linejoin="round"/>
<path d="M6.77438 10.4546L5.31055 12.8841L10.5531 13.1049L10.3829 6.99452L6.77438 10.4546ZM17.2254 10.4546L13.5488 6.9209L13.4127 13.1418L18.6893 12.8841C18.6893 12.8473 17.2254 10.4546 17.2254 10.4546ZM7.08076 21.4976L10.2808 19.8411L7.52331 17.5221L7.08076 21.4976ZM13.7531 19.8043L16.9191 21.4608L16.4765 17.4853C16.5105 17.5221 13.7531 19.8043 13.7531 19.8043Z" fill="#E27625" stroke="#E27625" stroke-width="0.25" stroke-linecap="round" stroke-linejoin="round"/>
<path d="M16.9191 21.497L13.7532 19.8405L14.0255 22.0859L13.9914 23.043L16.9191 21.497ZM7.08081 21.497L10.0425 23.0062L10.0085 22.0491L10.2808 19.8037L7.08081 21.497Z" fill="#D5BFB2" stroke="#D5BFB2" stroke-width="0.25" stroke-linecap="round" stroke-linejoin="round"/>
<path d="M10.0766 16.0491L7.45532 15.2025L9.32766 14.2822L10.0766 16.0491ZM13.9234 16.0491L14.7064 14.2822L16.5787 15.2025L13.9234 16.0491Z" fill="#233447" stroke="#233447" stroke-width="0.25" stroke-linecap="round" stroke-linejoin="round"/>
<path d="M7.0808 21.497L7.5574 17.3743L4.62974 17.4847C4.5957 17.4847 7.0808 21.497 7.0808 21.497ZM16.4765 17.3743L16.9191 21.497L19.4042 17.4847L16.4765 17.3743ZM18.6893 12.8467L13.4127 13.1043L13.8893 16.0123L14.6723 14.2455L16.5446 15.1657C16.5787 15.2025 18.6893 12.8467 18.6893 12.8467ZM7.45527 15.2025L9.32761 14.2823L10.1106 16.0491L10.5872 13.1412L5.31059 12.8835L7.45527 15.2025Z" fill="#CC6228" stroke="#CC6228" stroke-width="0.25" stroke-linecap="round" stroke-linejoin="round"/>
<path d="M5.31055 12.8467L7.52331 17.4847L7.45523 15.1657C7.45523 15.2025 5.31055 12.8467 5.31055 12.8467ZM16.5786 15.2025L16.4765 17.5215L18.6893 12.8835C18.6893 12.8467 16.5786 15.2025 16.5786 15.2025ZM10.5871 13.1043L10.0765 16.0123L10.6893 19.4724L10.8254 14.908L10.5871 13.1043ZM13.4467 13.1043L13.1744 14.908L13.3105 19.4724L13.9233 16.0123L13.4467 13.1043Z" fill="#E27525" stroke="#E27525" stroke-width="0.25" stroke-linecap="round" stroke-linejoin="round"/>
<path d="M13.9234 16.0498L13.3106 19.5099L13.7532 19.8412L16.4766 17.5221L16.5787 15.2031L13.9234 16.0498ZM7.45532 15.2031L7.52341 17.5221L10.2809 19.8412L10.7234 19.5099L10.1106 16.0498L7.45532 15.2031Z" fill="#F5841F" stroke="#F5841F" stroke-width="0.25" stroke-linecap="round" stroke-linejoin="round"/>
<path d="M13.9914 23.006L14.0255 22.0489L13.7872 21.8281H10.2468L10.0085 22.0489L10.0425 23.006L7.08081 21.4968L8.13613 22.417L10.2468 23.963H13.8553L15.9659 22.3802L16.9872 21.46L13.9914 23.006Z" fill="#C0AC9D" stroke="#C0AC9D" stroke-width="0.25" stroke-linecap="round" stroke-linejoin="round"/>
<path d="M13.753 19.8039L13.3104 19.4727H10.7232L10.2806 19.8039L10.0083 22.0493L10.2466 21.8285H13.787L14.0253 22.0493L13.753 19.8039Z" fill="#161616" stroke="#161616" stroke-width="0.25" stroke-linecap="round" stroke-linejoin="round"/>
<path d="M23.1829 8.02484L23.9659 3.90214L22.7744 0.0371094L13.7531 7.28864L17.2254 10.4543L22.1276 12.0003L23.2169 10.6383L22.7403 10.2702L23.4893 9.53404L22.9105 9.05552L23.6595 8.42975L23.1829 8.02484ZM0.0339355 3.90214L0.816914 8.02484L0.340319 8.42975L1.08925 9.05552L0.510531 9.53404L1.25947 10.2702L0.782872 10.6383L1.87223 12.0003L6.77436 10.4543L10.2467 7.28864L1.22542 0.0371094L0.0339355 3.90214Z" fill="#763E1A" stroke="#763E1A" stroke-width="0.25" stroke-linecap="round" stroke-linejoin="round"/>
<path d="M22.1276 12.0007L17.2255 10.4547L18.6893 12.8474L16.4766 17.4854L19.4042 17.4486H23.7617L22.1276 12.0007ZM6.77445 10.4547L1.87232 12.0007L0.238281 17.4854H4.59573L7.52339 17.5222L5.31062 12.8842L6.77445 10.4547ZM13.4468 13.105L13.7532 7.25228L15.183 3.09277H8.81701L10.2468 7.25228L10.5532 13.105L10.6893 14.9455V19.4731H13.3106V14.9455L13.4468 13.105Z" fill="#F5841F" stroke="#F5841F" stroke-width="0.25" stroke-linecap="round" stroke-linejoin="round"/>
</svg>
