<svg width="24" height="24" viewBox="0 0 24 24" fill="none" xmlns="http://www.w3.org/2000/svg">
<g clip-path="url(#clip0_722_33710)">
<path d="M18.6667 0H5.33333C2.38781 0 0 2.38781 0 5.33333V18.6667C0 21.6122 2.38781 24 5.33333 24H18.6667C21.6122 24 24 21.6122 24 18.6667V5.33333C24 2.38781 21.6122 0 18.6667 0Z" fill="#855DCD"/>
<path d="M6.18665 3.7334H17.8133V20.2667H16.1066V12.6934H16.0899C15.9013 10.6003 14.1422 8.96006 12 8.96006C9.85779 8.96006 8.09865 10.6003 7.91006 12.6934H7.89331V20.2667H6.18665V3.7334Z" fill="white"/>
<path d="M3.09338 6.08008L3.78672 8.42674H4.37338V17.9201C4.23194 17.9201 4.09628 17.9763 3.99626 18.0763C3.89624 18.1763 3.84005 18.312 3.84005 18.4534V19.0934H3.73338C3.59194 19.0934 3.45628 19.1496 3.35626 19.2496C3.25624 19.3496 3.20005 19.4853 3.20005 19.6267V20.2667H9.17338V19.6267C9.17338 19.4853 9.11719 19.3496 9.01717 19.2496C8.91716 19.1496 8.7815 19.0934 8.64005 19.0934H8.53338V18.4534C8.53338 18.312 8.47719 18.1763 8.37717 18.0763C8.27716 17.9763 8.1415 17.9201 8.00005 17.9201H7.36005V6.08008H3.09338ZM16.2134 17.9201C16.0719 17.9201 15.9363 17.9763 15.8363 18.0763C15.7362 18.1763 15.6801 18.312 15.6801 18.4534V19.0934H15.5734C15.4319 19.0934 15.2963 19.1496 15.1963 19.2496C15.0962 19.3496 15.0401 19.4853 15.0401 19.6267V20.2667H21.0134V19.6267C21.0134 19.4853 20.9572 19.3496 20.8572 19.2496C20.7572 19.1496 20.6215 19.0934 20.4801 19.0934H20.3734V18.4534C20.3734 18.312 20.3172 18.1763 20.2172 18.0763C20.1172 17.9763 19.9815 17.9201 19.8401 17.9201V8.42674H20.4267L21.1201 6.08008H16.8534V17.9201H16.2134Z" fill="white"/>
</g>
<defs>
<clipPath id="clip0_722_33710">
<rect width="24" height="24" fill="white"/>
</clipPath>
</defs>
</svg>
