<svg width="25" height="25" viewBox="0 0 16 16" fill="none" xmlns="http://www.w3.org/2000/svg">
<g clip-path="url(#clip0_2334_105203)">
<path d="M8 16C12.4183 16 16 12.4183 16 8C16 3.58172 12.4183 0 8 0C3.58172 0 0 3.58172 0 8C0 12.4183 3.58172 16 8 16Z" fill="url(#paint0_linear_2334_105203)"/>
<path fill-rule="evenodd" clip-rule="evenodd" d="M3.6213 7.91596C5.95347 6.89987 7.50861 6.23001 8.28672 5.90636C10.5084 4.98228 10.9701 4.82176 11.271 4.81646C11.3371 4.8153 11.4851 4.8317 11.581 4.90947C11.6619 4.97515 11.6842 5.06386 11.6948 5.12612C11.7055 5.18839 11.7187 5.33023 11.7082 5.44106C11.5878 6.70604 11.0669 9.77583 10.8018 11.1926C10.6897 11.7921 10.4689 11.9932 10.2551 12.0128C9.79052 12.0556 9.43775 11.7058 8.98778 11.4108C8.28368 10.9493 7.8859 10.662 7.20245 10.2116C6.4126 9.6911 6.92463 9.40502 7.37476 8.9375C7.49256 8.81514 9.53949 6.95331 9.57911 6.78441C9.58406 6.76329 9.58866 6.68455 9.54188 6.64297C9.49511 6.60139 9.42607 6.61561 9.37625 6.62692C9.30563 6.64295 8.18081 7.38641 6.0018 8.8573C5.68253 9.07654 5.39334 9.18336 5.13423 9.17776C4.84859 9.17159 4.29913 9.01625 3.89067 8.88348C3.38966 8.72062 2.99148 8.63452 3.02615 8.35794C3.04421 8.21388 3.2426 8.06655 3.6213 7.91596Z" fill="white"/>
</g>
<defs>
<linearGradient id="paint0_linear_2334_105203" x1="8" y1="0" x2="8" y2="15.8813" gradientUnits="userSpaceOnUse">
<stop stop-color="#2AABEE"/>
<stop offset="1" stop-color="#229ED9"/>
</linearGradient>
<clipPath id="clip0_2334_105203">
<rect width="16" height="16" fill="white"/>
</clipPath>
</defs>
</svg>